HIERARCHY
ROOT hip
{
  OFFSET 0 0 0
  CHANNELS 6 Xposition Yposition Zposition Zrotation Yrotation Xrotation
  JOINT abdomen
  {
    OFFSET 0 20.6881 -0.73152
    CHANNELS 3 Zrotation Xrotation Yrotation
    JOINT chest
    {
      OFFSET 0 11.7043 -0.48768
      CHANNELS 3 Zrotation Xrotation Yrotation
      JOINT neck
      {
        OFFSET 0 22.1894 -2.19456
        CHANNELS 3 Zrotation Xrotation Yrotation
        JOINT head
        {
          OFFSET -0.24384 7.07133 1.2192
          CHANNELS 3 Zrotation Xrotation Yrotation
          JOINT leftEye
          {
            OFFSET 4.14528 8.04674 8.04672
            CHANNELS 3 Zrotation Xrotation Yrotation
            End Site
            {
              OFFSET 1 0 0
            }
          }
          JOINT rightEye
          {
            OFFSET -3.6576 8.04674 8.04672
            CHANNELS 3 Zrotation Xrotation Yrotation
            End Site
            {
              OFFSET 1 0 0
            }
          }
        }
      }
      JOINT rCollar
      {
        OFFSET -2.68224 19.2634 -4.8768
        CHANNELS 3 Zrotation Xrotation Yrotation
        JOINT rShldr
        {
          OFFSET -8.77824 -1.95073 1.46304
          CHANNELS 3 Zrotation Xrotation Yrotation
          JOINT rForeArm
          {
            OFFSET -28.1742 -1.7115 0.48768
            CHANNELS 3 Zrotation Xrotation Yrotation
            JOINT rHand
            {
              OFFSET -22.5879 0.773209 7.07136
              CHANNELS 3 Zrotation Xrotation Yrotation
              JOINT rThumb1
              {
                OFFSET -1.2192 -0.487915 3.41376
                CHANNELS 3 Zrotation Xrotation Yrotation
                JOINT rThumb2
                {
                  OFFSET -3.37035 -0.52449 3.41376
                  CHANNELS 3 Zrotation Xrotation Yrotation
                  End Site
                  {
                    OFFSET -1.78271 -1.18214 1.43049
                  }
                }
              }
              JOINT rIndex1
              {
                OFFSET -7.75947 0.938293 5.60832
                CHANNELS 3 Zrotation Xrotation Yrotation
                JOINT rIndex2
                {
                  OFFSET -2.54057 -0.884171 1.56538
                  CHANNELS 3 Zrotation Xrotation Yrotation
                  End Site
                  {
                    OFFSET -1.62519 -0.234802 1.16502
                  }
                }
              }
              JOINT rMid1
              {
                OFFSET -8.24714 1.18213 3.41376
                CHANNELS 3 Zrotation Xrotation Yrotation
                JOINT rMid2
                {
                  OFFSET -3.10165 -0.590103 1.0647
                  CHANNELS 3 Zrotation Xrotation Yrotation
                  End Site
                  {
                    OFFSET -2.48547 -0.328903 0.83742
                  }
                }
              }
              JOINT rRing1
              {
                OFFSET -8.82822 0.546677 1.51678
                CHANNELS 3 Zrotation Xrotation Yrotation
                JOINT rRing2
                {
                  OFFSET -2.60934 -0.819778 -0.0198488
                  CHANNELS 3 Zrotation Xrotation Yrotation
                  End Site
                  {
                    OFFSET -2.33842 -0.294052 0.168128
                  }
                }
              }
              JOINT rPinky1
              {
                OFFSET -8.27202 -0.0477905 -0.4584
                CHANNELS 3 Zrotation Xrotation Yrotation
                JOINT rPinky2
                {
                  OFFSET -1.82734 -0.647385 -0.700984
                  CHANNELS 3 Zrotation Xrotation Yrotation
                  End Site
                  {
                    OFFSET -1.69225 -0.51767 -0.607171
                  }
                }
              }
            }
          }
        }
      }
      JOINT lCollar
      {
        OFFSET 2.68224 19.2634 -4.8768
        CHANNELS 3 Zrotation Xrotation Yrotation
        JOINT lShldr
        {
          OFFSET 8.77824 -1.95073 1.46304
          CHANNELS 3 Zrotation Xrotation Yrotation
          JOINT lForeArm
          {
            OFFSET 28.1742 -1.7115 0.48768
            CHANNELS 3 Zrotation Xrotation Yrotation
            JOINT lHand
            {
              OFFSET 22.5879 0.773209 7.07136
              CHANNELS 3 Zrotation Xrotation Yrotation
              JOINT lThumb1
              {
                OFFSET 1.2192 -0.487915 3.41376
                CHANNELS 3 Zrotation Xrotation Yrotation
                JOINT lThumb2
                {
                  OFFSET 3.37035 -0.52449 3.41376
                  CHANNELS 3 Zrotation Xrotation Yrotation
                  End Site
                  {
                    OFFSET 1.78271 -1.18214 1.43049
                  }
                }
              }
              JOINT lIndex1
              {
                OFFSET 7.75947 0.938293 5.60832
                CHANNELS 3 Zrotation Xrotation Yrotation
                JOINT lIndex2
                {
                  OFFSET 2.54057 -0.884171 1.56538
                  CHANNELS 3 Zrotation Xrotation Yrotation
                  End Site
                  {
                    OFFSET 1.62519 -0.234802 1.16502
                  }
                }
              }
              JOINT lMid1
              {
                OFFSET 8.24714 1.18213 3.41376
                CHANNELS 3 Zrotation Xrotation Yrotation
                JOINT lMid2
                {
                  OFFSET 3.10165 -0.590103 1.0647
                  CHANNELS 3 Zrotation Xrotation Yrotation
                  End Site
                  {
                    OFFSET 2.48547 -0.328903 0.83742
                  }
                }
              }
              JOINT lRing1
              {
                OFFSET 8.82822 0.546677 1.51678
                CHANNELS 3 Zrotation Xrotation Yrotation
                JOINT lRing2
                {
                  OFFSET 2.60934 -0.819778 -0.0198488
                  CHANNELS 3 Zrotation Xrotation Yrotation
                  End Site
                  {
                    OFFSET 2.33842 -0.294052 0.168128
                  }
                }
              }
              JOINT lPinky1
              {
                OFFSET 8.27202 -0.0477905 -0.4584
                CHANNELS 3 Zrotation Xrotation Yrotation
                JOINT lPinky2
                {
                  OFFSET 1.82734 -0.647385 -0.700984
                  CHANNELS 3 Zrotation Xrotation Yrotation
                  End Site
                  {
                    OFFSET 1.69225 -0.51767 -0.607171
                  }
                }
              }
            }
          }
        }
      }
    }
  }
  JOINT rButtock
  {
    OFFSET -8.77824 4.35084 1.2192
    CHANNELS 3 Zrotation Xrotation Yrotation
    JOINT rThigh
    {
      OFFSET 0 -1.70687 -2.19456
      CHANNELS 3 Zrotation Xrotation Yrotation
      JOINT rShin
      {
        OFFSET 0 -36.8199 0.73152
        CHANNELS 3 Zrotation Xrotation Yrotation
        JOINT rFoot
        {
          OFFSET 0.73152 -45.1104 -5.12064
          CHANNELS 3 Zrotation Xrotation Yrotation
          End Site
          {
            OFFSET -1.1221 -3.69964 12.103
          }
        }
      }
    }
  }
  JOINT lButtock
  {
    OFFSET 8.77824 4.35084 1.2192
    CHANNELS 3 Zrotation Xrotation Yrotation
    JOINT lThigh
    {
      OFFSET 0 -1.70687 -2.19456
      CHANNELS 3 Zrotation Xrotation Yrotation
      JOINT lShin
      {
        OFFSET 0 -36.8199 0.73152
        CHANNELS 3 Zrotation Xrotation Yrotation
        JOINT lFoot
        {
          OFFSET -0.73152 -45.1104 -5.12064
          CHANNELS 3 Zrotation Xrotation Yrotation
          End Site
          {
            OFFSET 1.1221 -3.69964 12.103
          }
        }
      }
    }
  }
}
MOTION
Frames:	9
Frame Time:	0.03333
0.0 0.0 0.0 0.0 0.0 0.0 0.0 0.0 0.0 0.0 0.0 0.0 0.0 0.0 0.0 0.0 0.0 0.0 0.0 0.0 0.0 0.0 0.0 0.0 0.0 0.0 0.0 0.0 0.0 0.0 0.0 0.0 0.0 0.0 0.0 0.0 0.0 0.0 0.0 0.0 0.0 0.0 0.0 0.0 0.0 0.0 0.0 0.0 0.0 0.0 0.0 0.0 0.0 0.0 0.0 0.0 0.0 0.0 0.0 0.0 0.0 0.0 0.0 0.0 0.0 0.0 0.0 0.0 0.0 0.0 0.0 0.0 0.0 0.0 0.0 0.0 0.0 0.0 0.0 0.0 0.0 0.0 0.0 0.0 0.0 0.0 0.0 0.0 0.0 0.0 0.0 0.0 0.0 0.0 0.0 0.0 0.0 0.0 0.0 0.0 0.0 0.0 0.0 0.0 0.0 0.0 0.0 0.0 0.0 0.0 0.0 0.0 0.0 0.0 0.0 0.0 0.0 0.0 0.0 0.0 0.0 0.0 0.0 0.0 0.0 0.0 0.0 0.0 0.0 0.0 0.0 0.0
2.0983 62.7892 8.9837 4.221969 10.098219 4.352402 4.879022 12.2919 -0.842028 1.18048 -10.812906 -12.394974 7.533217 19.94837 89.967921 -35.004485 8.459692 -82.784826 0.002457 -0.0 -0.003022 0.002457 -0.0 -0.003022 -155.460103 -3.227736 161.777705 -47.972962 19.563372 28.738458 62.013916 -35.220228 -78.66729 -179.042143 16.578049 145.343706 -85.829474 38.630431 47.955392 -101.325601 -8.21375 70.322477 -148.886633 -12.609529 120.244998 179.189146 -47.047491 113.478136 -0.220368 0.638332 0.122757 -42.06607 58.558648 36.103687 -70.379585 -72.130668 -87.279662 13.863282 29.739067 -0.475061 -143.936987 8.265291 -140.72004 -14.409291 -29.826232 -16.539088 153.156491 9.523269 -158.798343 37.862289 2.825237 8.438888 177.18192 10.555023 81.617652 9.557384 -1.252847 2.773035 5.433453 5.264966 -1.078483 -6.259423 -6.4952 1.240585 -45.283275 -63.865185 -4.306823 83.98003 50.94508 -70.310023 142.380511 33.886003 -130.261379 -3.221834 0.416845 -0.357019 0.000634 -0.018416 0.006426 156.141239 -14.440206 -173.563547 1.201784 -3.047835 1.116173 147.596936 12.726675 143.948902 -179.985837 75.750167 -0.00969 176.325298 20.852784 -169.772723 -57.007372 -66.49137 -123.922455 -106.084466 -33.463283 177.725603 179.994038 75.748469 0.006152 -165.928168 41.594705 -9.237098 -154.825554 68.29819 64.408562 150.468665 -33.488971 -128.444672
3.4023 64.818 14.064599999999999 5.220417 3.966362 0.375487 2.867527 13.354431 75.911702 -7.379006 -4.768036 -87.276989 -11.606518 28.45776 -117.291739 35.685565 26.707641 118.253801 -0.003111 -0.0 0.000475 0.002526 -0.0 -0.000315 -159.220928 -48.724982 170.567689 -33.050442 8.747611 -6.135957 -16.155218 -59.001796 -133.64219 162.260425 -35.561509 139.566863 -171.654405 -9.335867 89.949579 -64.092514 -2.168177 17.188483 -134.539772 10.541131 112.294997 -12.55232 32.727382 2.020153 -160.572991 -6.359156 143.199088 -163.360521 -5.000306 142.988535 -75.406636 72.954118 93.419713 -158.753038 -26.812094 -179.986976 44.735549 86.377909 -5.369291 -76.854676 -53.844541 -75.492253 142.586511 40.121001 -146.977377 34.855569 -7.490882 -20.511265 161.493656 -10.251367 83.405551 4.338907 -13.13866 3.551099 0.543447 0.53642 -0.086046 -27.705241 -45.366192 16.887649 -10.748259 -19.047689 4.724689 -9.299986 6.402886 -0.023235 86.294575 60.960245 -77.857572 153.829543 19.957597 -138.545797 72.756492 -72.143216 89.77225 78.872287 -82.250309 104.939956 -44.723044 86.378225 5.355349 1.796324 -7.786306 3.698863 -0.001629 -9e-05 -0.002443 -4.226786 -43.806331 -2.989279 13.032224 63.561506 21.516217 -28.837788 6.40367 -35.103539 179.98875 75.749731 0.009926 -163.322428 24.030333 -103.060392 -111.953859 -6.083145 81.045986 73.142515 2.341901 -3.096281
5.2406 67.24940000000001 19.075300000000002 7.608715 -5.151884 -5.425253 4.812403 20.308424 -1.485305 -0.702336 -9.221066 -5.671208 -8.833521 13.995597 -19.67556 16.214144 -23.459275 34.657298 -0.000211 -0.0 0.001276 0.000459 0.0 0.001202 0.023281 -0.13868 -0.030386 -124.387885 -12.740846 -170.568397 -0.945587 -19.513982 -117.667881 163.124536 -31.778776 140.72135 -20.621695 18.250195 6.386383 24.696431 -25.261827 -1.670195 -4.706489 7.223978 2.855223 -79.993242 48.093738 61.727751 -125.643739 49.839945 115.2742 -155.244437 16.662872 139.3539 -72.133458 72.975269 89.989332 -61.248756 -82.198669 -78.244199 0.549911 1.456066 0.507139 -21.858795 -39.419149 -22.59473 -3.268686 -26.755822 5.241876 -51.579345 13.74989 -0.277413 80.731502 -16.642746 -64.514526 -39.422266 -72.954719 -23.997086 175.198792 -12.845883 -89.807387 -12.920983 -62.149353 -12.753476 4.705608 7.224308 -2.854825 144.380111 11.556839 -106.709557 -89.033547 -81.395582 -59.758438 -9.726304 -20.377441 1.333964 145.065247 -3.222156 178.11365 -6.819474 76.992795 -5.384859 -44.710341 86.378828 5.342819 141.950203 -6.086957 137.446995 0.000687 0.001336 -0.000883 -4.427046 -34.242308 52.615038 69.715552 32.497694 94.145196 78.915537 21.519143 173.60919 -0.006377 0.001337 -0.006377 42.889215 -59.93602 180.0 146.227719 -39.997055 117.343823 -69.500069 -4.20638 -167.735719
7.731399999999999 70.2569 24.4764 13.842226 -16.411175 -12.750895 1.681847 21.982866 -161.840415 4.525097 2.917473 161.160452 1.362221 13.655867 35.290978 -20.120553 -19.121094 -24.141097 0.000604 -0.0 -0.002874 -7.4e-05 0.0 -0.002656 -14.14929 43.061334 15.997171 109.113354 -65.866848 63.651053 168.768424 -32.721943 53.897128 168.311917 -17.962925 144.133137 -169.149072 -6.830298 89.916835 46.114869 -66.123503 36.48743 10.281132 -18.182712 -4.586762 19.463417 -8.471556 -1.883981 -36.034446 51.723778 29.831489 167.99261 -64.089938 133.006851 -0.021501 -1.725917 -0.543322 -6.48564 62.75745 19.315917 1.299486 3.491083 1.194697 -80.671952 -54.501593 -80.198878 -2.460022 -18.21629 3.669692 123.484462 -13.664328 -178.803681 179.910182 18.690261 96.022612 10.026229 7.39894 1.574701 178.927043 -16.453911 -89.42156 40.568481 -21.14503 -2.133677 108.428241 34.160266 -91.742074 173.80882 -27.560516 -115.227414 0.970638 2.779236 -0.554738 172.05777 -31.346706 -144.109463 66.263415 72.86936 -83.835994 73.093297 -82.614622 90.187823 10.07759 -20.712047 9.540469 -45.451909 83.419773 7.668883 0.000537 -0.000714 0.000134 -6.812905 -26.883148 -165.007334 -29.61046 -58.778804 -123.634159 -166.455204 -25.986462 101.871217 0.000537 -0.000714 0.000134 71.670533 -60.710988 150.569576 131.95275 -3.846122 80.127534 160.055565 19.422589 152.081667
9.9651 73.6448 30.526999999999997 22.834009 -26.117913 -21.508435 -2.258914 28.252968 -129.563038 7.85908 -0.653874 135.868975 6.000802 17.51595 67.33796 -32.077665 -1.585631 -51.126752 -0.000261 0.0 -0.00321 0.001132 0.0 0.002135 -9.651097 34.836474 11.197909 44.955157 -16.658609 24.901342 -3.615281 -16.959129 80.019207 -6.364186 24.999789 1.192417 -78.031944 38.689273 42.411615 -144.809639 -30.210818 83.086619 -1.958983 3.104801 1.141308 -65.937086 48.376132 50.544422 -36.037713 51.722514 29.832964 -5.742506 23.288019 5.135423 -8.1e-05 0.063767 0.020539 9.702115 -62.549803 -9.184267 4.596737 13.359868 4.155366 8.07857 18.527968 4.665627 155.417909 -2.951671 -161.717673 34.555794 13.711901 -6.659296 -93.057227 -10.899132 55.754243 129.859071 62.337644 -106.208287 -11.509287 -11.487033 0.62281 155.072473 -74.806397 -129.444479 152.10448 -18.556459 -121.368553 0.725244 22.173362 4.489071 -23.90445 -61.333708 -1.400611 1.508928 12.598022 -2.276559 -0.000695 0.063851 -0.019974 156.361431 -46.138843 -177.533805 1.150106 -2.914107 1.066765 -15.216998 43.992361 -8.724281 -0.001592 -0.000687 -0.000796 -15.696027 -18.78766 -5.472982 -27.24911 54.431503 -57.197231 159.763897 -61.134639 -102.639203 0.006185 -0.000375 0.003093 98.588422 -55.124046 -173.748466 122.546015 -16.395034 -119.956167 -27.614324 -46.059871 43.361108
10.8432 77.5387 36.6303 33.491312 -33.437498 -30.732056 -9.628459 34.859975 -33.053446 2.027439 -11.429728 46.603179 -12.288853 27.82653 -107.726369 37.250971 16.421949 122.076287 -0.002186 -0.0 0.00348 0.002661 0.0 0.003503 -0.272898 1.606787 0.361327 59.659723 -54.719835 24.812834 -124.976005 -45.695972 106.202063 137.962149 -58.829207 120.748168 -164.492378 -2.167052 89.563126 -36.526652 -24.475351 9.633932 -166.821469 -43.973879 122.061656 1.116933 22.889376 -3.725862 13.807647 -42.122491 -2.983718 -13.542508 36.372091 10.691551 -0.000401 -0.018384 -0.006641 -156.46067 -24.183598 174.681385 -126.799772 -26.618945 -124.511136 -146.937956 12.101635 -142.097491 6.028247 25.557293 -7.218715 -48.092285 9.356314 -21.507146 5.318859 -58.685264 -64.003322 7.171294 -2.149778 2.698991 5.762657 5.575574 -1.158834 7.940254 8.77856 -10.146145 90.225682 41.07379 -75.79702 119.477135 43.046628 -91.019503 175.766057 -50.334689 -144.097407 175.459353 -38.986093 -142.973881 -0.004429 0.91807 -0.28816 -9.16154 12.716747 -1.662002 157.332271 57.24656 150.509754 -2.956315 3.650684 0.577375 -0.0 8e-05 0.001757 -25.685555 -17.139276 -86.477892 -47.172567 4.037495 113.851936 -90.405551 14.893249 12.953823 0.007906 8e-05 0.007906 109.628909 -46.248449 20.468107 -129.007799 35.123347 -132.763691 -175.367174 73.408751 85.166376
10.1074 81.7667 40.490500000000004 46.899987 -38.464616 -40.216965 -19.977151 34.72358 -26.095579 3.145846 -12.162452 47.032053 -2.805743 32.105807 -167.174783 19.713322 40.414566 178.919493 0.001632 -0.0 -0.00069 -0.004751 -0.0 0.000521 3.191679 -25.838851 -5.075042 -141.909213 -28.915604 166.18703 6.490433 -4.476753 -112.885081 164.191196 -27.268643 142.103107 176.506198 -20.695255 88.629603 -127.811755 18.047273 64.438125 -108.428149 34.161787 91.743317 -90.075396 53.531587 66.826678 -82.840351 61.110824 74.532409 -162.81327 -3.977209 143.083314 9.4e-05 0.06366 0.021232 -52.830795 -86.667537 -74.327616 -124.850742 -29.038563 -122.621764 1.959368 -2.849827 -2.547615 -3.284465 -26.942113 5.27477 26.309653 -67.591562 75.985038 -151.03429 -69.478737 -48.454281 172.144718 6.71283 -141.333182 177.200277 -14.797079 -89.629911 -177.917874 -18.368221 -98.359903 -68.79678 -72.674126 -22.617395 69.900297 53.50317 -58.220554 125.644093 49.83963 -115.273469 -5.365149 -5.835135 0.42719 -0.004131 1.771622 -0.554964 6.770014 62.746982 -19.316078 -44.734037 86.3779 5.367329 148.88246 12.944466 142.919395 0.000928 0.000595 -0.0 -36.321537 -16.69693 -112.672094 -36.836215 -12.86747 92.300399 -71.296959 -14.25722 18.06506 0.000396 0.001255 -0.000509 104.295332 -44.668538 -170.035928 93.676441 -27.248588 176.745737 -89.789734 82.468988 174.159383
9.9444 85.6351 43.0834 57.306194 -39.5121 -46.513289 -31.486857 31.842276 49.25904 -9.138531 -9.215481 -25.480085 -5.180871 12.301927 -8.706284 -2.227069 -24.058424 29.209194 -0.001642 -0.0 0.001408 0.004058 0.0 0.001236 4.238553 -44.742785 -8.648184 40.38047 2.743443 7.217839 -9.686328 42.229184 89.276721 -5.72859 24.110737 1.194889 -0.542885 0.536664 0.085898 -20.283277 18.464923 18.022643 -8.982902 13.038699 5.737648 -80.37091 48.196373 61.44332 -150.785742 19.32659 137.027637 167.407168 -63.998018 132.443434 -74.841357 72.959839 92.828423 -3.337959 -62.272354 -18.860345 -138.444807 -6.230869 -135.660293 -25.359577 -40.325862 -27.020524 59.823974 -86.72241 81.624658 68.251501 -49.877788 72.556489 -24.055926 -45.184972 81.709669 173.828378 6.717405 -141.744412 78.031279 38.688873 -42.412267 -73.942408 -48.574363 -27.730362 50.386564 40.826507 -40.024444 67.699422 50.43044 -47.785933 160.673249 -6.667543 -143.246257 -9.979798 -20.331715 1.141516 0.060105 -3.508482 1.104285 -11.667981 -21.540435 2.617109 140.597026 -1.003149 137.666843 -34.979206 74.490067 0.417822 -0.001433 0.000518 -0.0 -42.524962 -14.626401 -113.770515 -38.005341 -8.331302 -65.639346 -85.653762 49.014903 177.586112 -179.994822 75.751242 -0.004569 -127.68427 -7.455633 -180.0 -29.510579 -45.914844 16.571447 -88.475957 46.311543 172.255874
